<svg xmlns="http://www.w3.org/2000/svg" version="1.1" xmlns:xlink="http://www.w3.org/1999/xlink" xmlns:svgjs="http://svgjs.com/svgjs" width="1440" height="560" preserveAspectRatio="none" viewBox="0 0 1440 560"><g mask="url(&quot;#SvgjsMask1000&quot;)" fill="none"><rect width="1440" height="560" x="0" y="0" fill="#0e2a47"></rect><path d="M 0,109 C 57.6,134 172.8,231.4 288,234 C 403.2,236.6 460.8,124 576,122 C 691.2,120 748.8,231.8 864,224 C 979.2,216.2 1036.8,85.8 1152,83 C 1267.2,80.2 1382.4,184.6 1440,210L1440 560L0 560z" fill="#184a7e"></path><path d="M 0,298 C 96,326.8 288,425.4 480,442 C 672,458.6 768,359 960,381 C 1152,403 1344,517.8 1440,552L1440 560L0 560z" fill="#2264ab"></path></g><defs><mask id="SvgjsMask1000"><rect width="1440" height="560" fill="#ffffff"></rect></mask></defs></svg>